<svg xmlns="http://www.w3.org/2000/svg" xmlns:xlink="http://www.w3.org/1999/xlink" version="1.1" x="0px" y="0px" viewBox="0 0 64 64" enable-background="new 0 0 64 64" xml:space="preserve"><g><path fill-rule="evenodd" clip-rule="evenodd" d="M59.413,49.059c-0.939-7.002-0.063-16.462-0.48-23.52   c-0.215-3.645,0.763-7.67-0.72-10.56c-1.1-0.201-1.292,0.987-1.44,1.68c-0.652,3.064,0.344,8.262-0.239,11.28   c-0.423-0.81-1.016-0.56-0.96-2.16c0.962,1.713,0.483-1.979-0.24-2.64c0.282-0.038,0.681,0.041,0.72-0.24   c-0.654-2.34,0.709-7.668,0-9.36c-0.384-0.917-1.521-1.747-2.64-1.2c-1.062,0.518-0.286,1.939-0.96,1.92   c-0.888-0.096-0.338-2.806-0.721-3.6c-0.307-0.333-1.133-0.147-1.439-0.48c0-0.08,0-0.16,0-0.24c-0.16,0-0.32,0-0.48,0   c-0.581,0.433-1.552,0.711-2.159,0.72c-0.02-0.337,0.697-0.274,0.239-0.48c0-0.08,0-0.16,0-0.24c-1.68,0-3.359,0-5.04,0   c-14.733,0.462-25.651,0.62-36.72,0.24c-0.876,0.324-1.604,0.795-1.92,1.68c0,1.2,0,2.4,0,3.6c0.549,0.675,0.404,1.809,0,2.64   c0,0.24,0,0.48,0,0.72c0.579,9.997,0.659,15.685,0.72,25.68c3.047,1.213,6.966,0.492,10.56,0.479   c10.892-0.035,23.065,0.068,35.041,0c1.427-3.891,0.062-10.17,1.439-13.68c-0.512-0.771-1.136-4.789,0.24-5.52   c-0.114,7.739,0.393,14.368,0,20.64c-11.344,0.234-25.834-0.534-39.12,0.48c-1.934,0.147-5.924-1.002-6,1.439   c1.434,1.294,3.807,0.72,5.76,0.72c13.108,0,27.551,0.236,41.76-0.239c1.376-4.251,0.144-9.982,1.199-13.681   c-0.268,1.38,0.564,0.795,0.721,2.4c-0.244-0.156-0.248-0.552-0.721-0.48c0.804,0.963-0.411,2.601,0.96,3.12   c-1.973,1.704-0.023,7.384-0.96,10.08c-0.766-0.205-0.742,0.378-1.199,0.48c-1.268,0.113,0.558-0.646-0.24-0.721   c-14.006,0.529-28.694-0.157-41.52,0.721c-3.315-2.119-7.111,2.808-1.68,3.12c0.08,0,0.16,0,0.24,0   c1.777-0.605,3.545-0.21,5.76-0.24c0,0.08,0,0.16,0,0.24c0.08,0,0.16,0,0.24,0c13.936-1.124,26.597-0.446,41.52-0.96   c0.562-0.799-0.126-2.847,0.48-3.601C59.413,49.219,59.413,49.139,59.413,49.059z M32.053,42.579c0.939-0.47-2.191-1.465-2.88,0   c0.045-0.848-1.67-0.796-2.4,0c-0.834-1.093-4.1-0.592-5.76-0.48c-1.848,0.124-3.274-0.46-5.28,0.721   c-0.132-0.532,0.458-0.342,0.48-0.721c-2.627,0.005-6.389,0.164-8.4,0c-0.364-10.343,0.256-15.331-0.48-24   c0.635-0.614,0.093-2.829,0.24-4.32c13.842-0.133,26.126-1.49,41.28-0.24c0.316,10.454,0.097,19.25,0.24,29.28   C42.915,43.318,37.389,41.985,32.053,42.579z M51.973,22.659c-0.474-0.522,0.42-1.893-0.72-2.16c0.055-0.346,0.716-0.084,0.72-0.48   C52.436,20.419,52.279,22.232,51.973,22.659z M55.812,34.659c-0.549-0.411-0.088-1.832-0.239-2.64   c0.194,0.045,0.239,0.241,0.479,0.24c0-0.56,0-1.12,0-1.68c-0.704,1.853,0.043,0.396-0.96-0.24c0.298-1.089,0.698,0.415,1.2-0.24   c-0.055-0.346-0.717-0.084-0.72-0.48c-0.211-0.771,0.622-0.498,0.72-0.96C56.351,30.849,57.209,33.403,55.812,34.659z"></path></g></svg>