<svg viewBox="0 0 400 400" xmlns="http://www.w3.org/2000/svg" xml:space="preserve" style="fill-rule:evenodd;clip-rule:evenodd;stroke-linejoin:round;stroke-miterlimit:2"><path d="M326.369 40.716H3.959v321.87h322.41z"/><path d="M0-12.601V-2.52L88.928 0 0-12.601Z" style="fill-rule:nonzero" transform="translate(40.325 35.676)"/><path d="M0-23.402v14.401L119.891 0 0-23.402Z" style="fill-rule:nonzero" transform="translate(75.968 33.515)"/><path d="M0-309.989V0l31.863-309.989H0Z" style="fill-rule:nonzero" transform="translate(332.85 362.59)"/><path d="M0-323.49-32.943-7.561l-52.385-4.86L-29.162 0l56.165-323.49H0Z" style="fill-rule:nonzero" transform="translate(369.04 391.21)"/><path d="m0-8.101-88.568-1.62L0 1.62v-9.721Z" style="fill-rule:nonzero" transform="translate(332.85 378.52)"/><path d="M0 81.115c-4.108-.003-4.119-.003-4.108-4.04.015-5.239-.461-4.684 4.633-4.705 4.111-.016 4.125-.002 4.11 4.024-.02 5.159.508 4.694-4.635 4.721M9.453-.789c.469 0 .946.053 1.407-.007 2.234-.294 2.976.795 2.743 2.862-.053.464-.008.938-.008 1.408-.031 5.071.419 4.451-4.58 4.481-4.169.025-4.169.005-4.171-4.209C4.843-.79 4.843-.79 9.453-.789m79.34 73.308c-1.615-1.652-2.519-1.474-4.154-.018-9.421 8.393-20.601 12.183-33.048 10.681-18.61-2.245-31.011-12.624-37.036-30.424-.589-1.74-1.484-2.331-3.232-2.299-4.319.078-8.641-.033-12.96.051-1.786.034-2.542-.511-2.508-2.412.095-5.261.109-10.526-.005-15.785-.045-2.055.813-2.542 2.666-2.497 3.925.094 7.863-.136 11.778.085 2.677.152 3.771-.838 4.607-3.372C24.683-3.15 61.844-12.922 84.936 8.077c1.435 1.304 2.26 1.327 3.622-.055a2009.969 2009.969 0 0 1 22.999-22.988c1.422-1.398 1.154-2.213-.145-3.379-4.159-3.732-8.492-7.228-13.28-10.128-15.861-9.607-33.038-13.518-51.449-11.412-16.358 1.871-30.856 8.271-43.344 19.029C-5.093-13.591-11.803-4.95-16.652 5.093c-1.545 3.198-1.36 3.44 2.312 3.46 2.356.012 4.726.156 7.065-.047 2.187-.19 2.719.681 2.601 2.679-.144 2.426-.034 4.867-.035 7.301-.001 2.671-.091 5.345.028 8.01.09 2.011-.584 2.811-2.687 2.757-4.71-.119-9.426.03-14.137-.064-1.931-.038-2.545.715-2.722 2.589a89.626 89.626 0 0 0-.012 16.688c.185 2.016.883 2.718 2.885 2.676 4.79-.103 9.583.005 14.374-.048 1.582-.018 2.295.539 2.282 2.181a981.864 981.864 0 0 0 .005 16.728c.013 1.51-.671 1.851-2.027 1.801-2.353-.086-4.712-.034-7.069-.031-4.397.004-4.481.136-2.597 4.027 14.179 29.285 45.942 47.306 78.491 44.661 18.965-1.541 35.276-8.929 49.253-21.728 1.418-1.299 1.533-2.128.088-3.548-7.619-7.487-15.186-15.028-22.653-22.666" style="fill:#fff;fill-rule:nonzero" transform="translate(136.925 167.453)"/><path d="M0-9.531c-5.255.098-10.515-.026-15.77.054-1.95.029-2.671-.727-2.598-2.64.095-2.506-.015-5.02.022-7.53.024-1.585-.642-2.258-2.26-2.218-2.979.073-5.963.051-8.944.017-1.432-.016-1.956.706-1.949 2.031.014 2.902.015 5.805.007 8.708-.004 1.471.712 2.129 2.177 2.113 2.51-.026 5.028.115 7.53-.028 2.222-.128 3.067.624 3.005 2.928-.138 5.095.038 10.199-.079 15.296-.05 2.184.574 3.174 2.911 3.037 2.658-.157 5.333-.037 8.001-.036 2.746 0 5.496-.084 8.238.028 1.966.08 2.623-.722 2.596-2.626a542.7 542.7 0 0 1 .003-16.24C2.924-8.759 2.149-9.571 0-9.531" style="fill:#fff;fill-rule:nonzero" transform="translate(113.269 239.737)"/><path d="M0 21.8c2.823-.049 5.648-.014 8.472-.013 2.903.002 5.807-.042 8.708.019 1.672.035 2.416-.582 2.398-2.333a847.963 847.963 0 0 1-.002-17.178c.017-1.745-.718-2.336-2.4-2.32C11.45.029 5.722.022-.004-.021c-1.581-.012-2.281.58-2.27 2.205.042 5.804.045 11.609-.002 17.413-.013 1.643.714 2.23 2.276 2.203" style="fill:#fff;fill-rule:nonzero" transform="translate(91.959 167.01)"/><path d="M0 14.584c3.531.005 7.062.005 10.594.003 1.339-.001 2.025-.649 2.021-2.02-.009-3.531-.013-7.062.01-10.593.009-1.4-.67-1.979-2.027-1.956-1.726.029-3.453.007-5.18.008C3.692.026 1.965.046.239.02c-1.456-.021-2.186.637-2.183 2.114.008 3.452.004 6.905-.005 10.357-.003 1.318.559 2.091 1.949 2.093" style="fill:#fff;fill-rule:nonzero" transform="translate(73.375 184.025)"/><path d="M-.298-11.605c6.638.067 5.696-.635 5.64 5.813-.054 6.383.78 5.567-5.64 5.576C-6.692-.378-6.057.668-6.007-6c.047-6.386-.453-5.669 5.709-5.605" style="fill:#fff;fill-rule:nonzero" transform="scale(-1 1) rotate(-.558 22364.72 16431.535)"/><path d="M.076.002c5.863.074 5.073-.327 5.058 5.284-.155 6.074.666 5.613-5.058 5.518-6.26-.103-5.466.579-5.387-5.631C-5.239-.566-5.993-.074.076.002" style="fill:#fff;fill-rule:nonzero" transform="scale(1 -1) rotate(-.796 -15303.66 -7454.798)"/><path d="M-4.536-5.149C.439-5.193.221-5.835.26-.347c.039 5.46.21 4.717-4.796 4.82-5.237-.029-5.113.768-5.131-4.461-.021-5.829-.488-5.111 5.131-5.161" style="fill:#fff;fill-rule:nonzero" transform="scale(-1 1) rotate(-89.595 70.112 134.956)"/><path d="M4.211-3.978c3.978.187 3.978.187 3.793 4.184-.181 3.927-.254 3.999-3.793 3.829C-.029 3.831-.18 3.678.001-.21c.186-3.956.186-3.956 4.21-3.768" style="fill:#fff;fill-rule:nonzero" transform="scale(-1 1) rotate(87.303 -188.214 7.22)"/><path d="M-.191-6.594c3.289.147 3.474.345 3.317 3.578C2.98.031 2.86.139-.191.003c-3.348-.15-3.416-.218-3.284-3.293.144-3.335.246-3.438 3.284-3.304" style="fill:#fff;fill-rule:nonzero" transform="scale(-1 1) rotate(-2.728 3974.839 1291.392)"/><path d="M-.053-6.608c3.037.038 3.166.169 3.132 3.184C3.041-.082 2.928.042-.053.002c-3.037-.04-3.152-.157-3.122-3.19.033-3.358.125-3.458 3.122-3.42" style="fill:#fff;fill-rule:nonzero" transform="scale(-1 1) rotate(-.841 15429.129 5018.746)"/></svg>